<svg xmlns="http://www.w3.org/2000/svg" viewBox="0 0 48 48">

  <defs>
    <linearGradient id="hfGrad" gradientUnits="userSpaceOnUse" x1="0" y1="0" x2="48" y2="48">
      <stop offset="0%" stop-color="#00C8FF"/>
      <stop offset="50%" stop-color="#6D2EFF"/>
      <stop offset="100%" stop-color="#FF2DB8"/>
    </linearGradient>
    <filter id="hfGlow" x="-50%" y="-50%" width="200%" height="200%">
      <feGaussianBlur in="SourceGraphic" stdDeviation="1.3" result="blur"/>
      <feMerge>
        <feMergeNode in="blur"/>
        <feMergeNode in="SourceGraphic"/>
      </feMerge>
    </filter>
  </defs>

  <g>
    <circle cx="24" cy="24" r="13" stroke="url(#hfGrad)" stroke-width="3" stroke-linecap="round" stroke-linejoin="round" fill="none"/>
    <rect x="22" y="5" width="4" height="7" rx="1.5" stroke="url(#hfGrad)" stroke-width="3" stroke-linecap="round" stroke-linejoin="round" fill="none" transform="rotate(0 24 24)"/>
    <rect x="22" y="5" width="4" height="7" rx="1.5" stroke="url(#hfGrad)" stroke-width="3" stroke-linecap="round" stroke-linejoin="round" fill="none" transform="rotate(60 24 24)"/>
    <rect x="22" y="5" width="4" height="7" rx="1.5" stroke="url(#hfGrad)" stroke-width="3" stroke-linecap="round" stroke-linejoin="round" fill="none" transform="rotate(120 24 24)"/>
    <rect x="22" y="5" width="4" height="7" rx="1.5" stroke="url(#hfGrad)" stroke-width="3" stroke-linecap="round" stroke-linejoin="round" fill="none" transform="rotate(180 24 24)"/>
    <rect x="22" y="5" width="4" height="7" rx="1.5" stroke="url(#hfGrad)" stroke-width="3" stroke-linecap="round" stroke-linejoin="round" fill="none" transform="rotate(240 24 24)"/>
    <rect x="22" y="5" width="4" height="7" rx="1.5" stroke="url(#hfGrad)" stroke-width="3" stroke-linecap="round" stroke-linejoin="round" fill="none" transform="rotate(300 24 24)"/>
    <path d="M25,15 L19,26 L24,26 L22,33 L30,21 L25,21 Z" stroke="url(#hfGrad)" stroke-width="3" stroke-linecap="round" stroke-linejoin="round" fill="none"/>
  </g>
</svg>